Coordinates
version=1
nRows=11
nColumns=36
inDegrees=yes

Units are S.I. units (second, meters, Newtons, ...)
If the header above contains a line with 'inDegrees', this indicates whether rotational values are in degrees (yes) or radians (no).

endheader
time	pelvis_tilt	pelvis_list	pelvis_rotation	pelvis_tx	pelvis_ty	pelvis_tz	hip_flexion_r	hip_adduction_r	hip_rotation_r	knee_angle_r	knee_angle_r_beta	ankle_angle_r	subtalar_angle_r	mtp_angle_r	hip_flexion_l	hip_adduction_l	hip_rotation_l	knee_angle_l	knee_angle_l_beta	ankle_angle_l	subtalar_angle_l	mtp_angle_l	lumbar_extension	lumbar_bending	lumbar_rotation	arm_flex_r	arm_add_r	arm_rot_r	elbow_flex_r	pro_sup_r	arm_flex_l	arm_add_l	arm_rot_l	elbow_flex_l	pro_sup_l
      2.00000000	    -24.42892125	     -1.32783374	     -2.52062576	     -0.29553840	      1.08997956	     -0.57526558	     46.97563664	     -5.78725909	     -1.00015856	     29.81256950	      0.52032750	      6.48780233	     -3.35846798	     -7.49999835	     45.29190538	    -14.84217164	     -7.26659654	     29.55712288	      0.51586911	      6.99221790	      3.39868774	     -7.49999835	    -16.78718529	     -1.64105972	      5.56438678	     51.42262826	    -12.14306409	     22.69769716	     90.59162647	     97.15830149	     54.40180626	     -9.15959845	     31.67191168	     87.25237060	     99.45821626
      2.01000000	    -25.90808404	     -1.51025340	     -2.63145447	     -0.30226095	      1.08398873	     -0.57447327	     49.38139468	     -5.54683373	     -1.10410316	     30.75088160	      0.53670413	      6.62308481	     -3.50527203	     -7.49999837	     47.90898902	    -15.32962866	     -7.16401168	     30.75138724	      0.53671296	      7.30444124	      3.57475060	     -7.49999837	    -16.83136575	     -1.57204026	      5.75448907	     54.02009151	    -12.12037501	     22.59923043	     90.13609303	     97.10828255	     57.01039085	     -8.90640669	     31.72718786	     86.67450002	     99.43559515
      2.02000000	    -27.24635143	     -1.69418427	     -2.76170526	     -0.30897388	      1.07781927	     -0.57382634	     51.66636347	     -5.29911019	     -1.15009983	     31.74052216	      0.55397662	      6.71976427	     -3.67931698	     -7.49999839	     50.42149451	    -15.79717346	     -6.96884618	     32.02634094	      0.55896510	      7.63534177	      3.76279506	     -7.49999839	    -17.05751829	     -1.47300086	      5.96533073	     56.68802211	    -12.11457692	     22.51795383	     89.70636621	     97.05780869	     59.65104921	     -8.59254741	     31.66690439	     86.13042850	     99.41086151
      2.03000000	    -28.39913730	     -1.75854078	     -2.83188082	     -0.31552906	      1.07157532	     -0.57345285	     53.80737494	     -5.24453858	     -1.25582620	     32.81334017	      0.57270082	      6.85361188	     -3.82913688	     -7.49999840	     52.73640281	    -16.10837994	     -6.83545536	     33.31999128	      0.58154355	      7.92238351	      3.77801185	     -7.49999840	    -17.51466008	     -1.47955868	      6.05381146	     59.45936977	    -12.08639407	     22.43524344	     89.28226550	     97.00670246	     62.29835306	     -8.28087899	     31.48258619	     85.66444566	     99.38917451
      2.04000000	    -29.85836943	     -1.85034917	     -2.86769937	     -0.32222580	      1.06452067	     -0.57317400	     56.28115514	     -5.18610468	     -1.33160268	     33.90743924	      0.59179646	      7.03089689	     -3.88370321	     -7.49999842	     55.44589828	    -16.36205136	     -6.42611896	     34.66652157	      0.60504494	      8.28576983	      3.85167482	     -7.49999842	    -17.54823566	     -1.43114957	      6.16591174	     62.14064743	    -12.11135055	     22.45449876	     88.77719710	     96.93928673	     64.92400199	     -7.94363617	     31.46479496	     85.04498050	     99.42020212
      2.05000000	    -31.14610641	     -1.88765302	     -2.96630425	     -0.32862300	      1.05748596	     -0.57283222	     58.64016479	     -5.16799000	     -1.47993716	     35.10967878	      0.61277949	      7.22670203	     -3.98687785	     -7.49999844	     57.96937276	    -16.67166060	     -6.26143081	     36.08845327	      0.62986233	      8.62135800	      3.79715461	     -7.49999844	    -17.76959050	     -1.53197284	      6.32537415	     64.78957253	    -12.19933411	     22.32137950	     88.36855672	     96.88877631	     67.57359401	     -7.49767278	     31.45354295	     84.35101503	     99.39092138
      2.06000000	    -32.43549595	     -1.99863532	     -3.04922918	     -0.33500196	      1.05025822	     -0.57252409	     60.97054775	     -5.10036907	     -1.59492906	     36.29400658	      0.63344991	      7.42865526	     -4.02536791	     -7.49999846	     60.53823681	    -16.96952174	     -5.86940724	     37.52088833	      0.65486304	      8.94485238	      3.82402367	     -7.49999846	    -17.97349710	     -1.49215447	      6.56217973	     67.40571877	    -12.30559778	     22.22335001	     87.98652142	     96.83173841	     70.19844280	     -6.98090120	     31.49026861	     83.59347377	     99.23446019
      2.07000000	    -33.52701305	     -2.04534182	     -3.12073394	     -0.34122399	      1.04306381	     -0.57237014	     63.16272721	     -5.13137646	     -1.73503361	     37.60289741	      0.65629437	      7.69906489	     -4.11669504	     -7.49999847	     62.87356314	    -17.20991134	     -5.58291751	     38.95745663	      0.67993589	      9.27737041	      3.70929240	     -7.49999847	    -18.42146434	     -1.41909519	      6.63376404	     70.19530610	    -12.15125454	     22.25198075	     87.40836199	     96.76238829	     72.77100910	     -6.63932584	     31.33254819	     83.04930178	     99.02412351
      2.08000000	    -34.68683969	     -2.12160152	     -3.14874364	     -0.34739508	      1.03557238	     -0.57236935	     65.40109895	     -5.16224893	     -1.80631225	     38.88923311	      0.67874516	      8.00332358	     -4.14020194	     -7.49999849	     65.30960186	    -17.37612889	     -5.09339967	     40.39766864	      0.70507233	      9.59459369	      3.63101482	     -7.49999849	    -18.78104170	     -1.24950093	      6.66825304	     72.97809400	    -11.93659665	     22.25643152	     86.80492493	     96.67974174	     75.25792372	     -6.38681176	     31.04930893	     82.61913874	     98.75933803
      2.09000000	    -35.80228748	     -2.19082253	     -3.21362082	     -0.35323507	      1.02800283	     -0.57236327	     67.59744521	     -5.18218031	     -1.89651402	     40.20132427	      0.70164547	      8.30093350	     -4.21012712	     -7.49999851	     67.68816134	    -17.57704532	     -4.66845054	     41.85577596	      0.73052110	      9.92062634	      3.54514155	     -7.49999851	    -19.16035104	     -1.15513869	      6.77473672	     75.63340500	    -11.79630974	     22.12608526	     86.30276552	     96.61826207	     77.73176443	     -6.07513131	     30.66777569	     82.17632209	     98.56099367
      2.10000000	    -36.88752621	     -2.32949165	     -3.29509413	     -0.35881281	      1.02030712	     -0.57226719	     69.73965275	     -5.15488357	     -2.04283882	     41.52022928	      0.72466471	      8.59885557	     -4.27107813	     -7.49999852	     70.07418116	    -17.82983395	     -4.16424109	     43.36204760	      0.75681050	     10.24719643	      3.52512009	     -7.49999852	    -19.52038112	     -1.02846552	      6.94137920	     78.19637669	    -11.72192635	     22.00547033	     85.81813786	     96.57489377	     80.12481160	     -5.70189293	     30.29723919	     81.72103895	     98.40640469
